<mxfile host="Electron" agent="Mozilla/5.0 (Windows NT 10.0; Win64; x64) AppleWebKit/537.36 (KHTML, like Gecko) draw.io/24.7.8 Chrome/128.0.6613.36 Electron/32.0.1 Safari/537.36" version="24.7.8">
  <diagram id="C5RBs43oDa-KdzZeNtuy" name="Page-1">
    <mxGraphModel dx="1434" dy="886" grid="1" gridSize="10" guides="1" tooltips="1" connect="1" arrows="1" fold="1" page="1" pageScale="1" pageWidth="827" pageHeight="1169" math="0" shadow="0">
      <root>
        <mxCell id="WIyWlLk6GJQsqaUBKTNV-0" />
        <mxCell id="WIyWlLk6GJQsqaUBKTNV-1" parent="WIyWlLk6GJQsqaUBKTNV-0" />
        <mxCell id="4TB9VJTh2GYISYzdKiTa-3" value="Throwable" style="html=1;whiteSpace=wrap;" parent="WIyWlLk6GJQsqaUBKTNV-1" vertex="1">
          <mxGeometry x="359" y="40" width="110" height="50" as="geometry" />
        </mxCell>
        <mxCell id="4TB9VJTh2GYISYzdKiTa-4" value="Exception" style="html=1;whiteSpace=wrap;" parent="WIyWlLk6GJQsqaUBKTNV-1" vertex="1">
          <mxGeometry x="170" y="160" width="110" height="50" as="geometry" />
        </mxCell>
        <mxCell id="4TB9VJTh2GYISYzdKiTa-5" value="Error" style="html=1;whiteSpace=wrap;" parent="WIyWlLk6GJQsqaUBKTNV-1" vertex="1">
          <mxGeometry x="560" y="160" width="110" height="50" as="geometry" />
        </mxCell>
        <mxCell id="4TB9VJTh2GYISYzdKiTa-6" value="RuntimeException" style="html=1;whiteSpace=wrap;" parent="WIyWlLk6GJQsqaUBKTNV-1" vertex="1">
          <mxGeometry x="50" y="280" width="110" height="50" as="geometry" />
        </mxCell>
        <mxCell id="4TB9VJTh2GYISYzdKiTa-7" value="IOException" style="html=1;whiteSpace=wrap;" parent="WIyWlLk6GJQsqaUBKTNV-1" vertex="1">
          <mxGeometry x="280" y="280" width="110" height="50" as="geometry" />
        </mxCell>
        <mxCell id="4TB9VJTh2GYISYzdKiTa-8" value="VirtualMachineError" style="html=1;whiteSpace=wrap;" parent="WIyWlLk6GJQsqaUBKTNV-1" vertex="1">
          <mxGeometry x="560" y="280" width="110" height="50" as="geometry" />
        </mxCell>
        <mxCell id="4TB9VJTh2GYISYzdKiTa-9" value="StackOverflowError" style="html=1;whiteSpace=wrap;" parent="WIyWlLk6GJQsqaUBKTNV-1" vertex="1">
          <mxGeometry x="450" y="400" width="110" height="50" as="geometry" />
        </mxCell>
        <mxCell id="4TB9VJTh2GYISYzdKiTa-10" value="OutOfMemoryError" style="html=1;whiteSpace=wrap;" parent="WIyWlLk6GJQsqaUBKTNV-1" vertex="1">
          <mxGeometry x="680" y="400" width="110" height="50" as="geometry" />
        </mxCell>
        <mxCell id="4TB9VJTh2GYISYzdKiTa-11" value="&lt;b&gt;. . .&lt;/b&gt;" style="text;html=1;align=center;verticalAlign=middle;resizable=0;points=[];autosize=1;strokeColor=none;fillColor=none;fontSize=16;" parent="WIyWlLk6GJQsqaUBKTNV-1" vertex="1">
          <mxGeometry x="200" y="290" width="50" height="30" as="geometry" />
        </mxCell>
        <mxCell id="4TB9VJTh2GYISYzdKiTa-12" value="&lt;b&gt;. . .&lt;/b&gt;" style="text;html=1;align=center;verticalAlign=middle;resizable=0;points=[];autosize=1;strokeColor=none;fillColor=none;fontSize=16;" parent="WIyWlLk6GJQsqaUBKTNV-1" vertex="1">
          <mxGeometry x="590" y="410" width="50" height="30" as="geometry" />
        </mxCell>
        <mxCell id="4TB9VJTh2GYISYzdKiTa-15" value="Extends" style="endArrow=block;endSize=16;endFill=0;html=1;rounded=0;fontSize=12;exitX=0.5;exitY=0;exitDx=0;exitDy=0;entryX=0.5;entryY=1;entryDx=0;entryDy=0;edgeStyle=orthogonalEdgeStyle;" parent="WIyWlLk6GJQsqaUBKTNV-1" source="4TB9VJTh2GYISYzdKiTa-4" target="4TB9VJTh2GYISYzdKiTa-3" edge="1">
          <mxGeometry x="0.7293" y="-15" width="160" relative="1" as="geometry">
            <mxPoint x="310" y="170" as="sourcePoint" />
            <mxPoint x="470" y="170" as="targetPoint" />
            <mxPoint x="-15" y="15" as="offset" />
          </mxGeometry>
        </mxCell>
        <mxCell id="4TB9VJTh2GYISYzdKiTa-16" value="" style="endArrow=block;endSize=16;endFill=0;html=1;rounded=0;fontSize=12;exitX=0.5;exitY=0;exitDx=0;exitDy=0;entryX=0.5;entryY=1;entryDx=0;entryDy=0;edgeStyle=orthogonalEdgeStyle;fontStyle=1" parent="WIyWlLk6GJQsqaUBKTNV-1" source="4TB9VJTh2GYISYzdKiTa-5" target="4TB9VJTh2GYISYzdKiTa-3" edge="1">
          <mxGeometry x="0.0331" width="160" relative="1" as="geometry">
            <mxPoint x="235" y="170" as="sourcePoint" />
            <mxPoint x="424" y="100" as="targetPoint" />
            <mxPoint as="offset" />
          </mxGeometry>
        </mxCell>
        <mxCell id="4TB9VJTh2GYISYzdKiTa-17" value="Extends" style="endArrow=block;endSize=16;endFill=0;html=1;rounded=0;fontSize=12;exitX=0.5;exitY=0;exitDx=0;exitDy=0;entryX=0.5;entryY=1;entryDx=0;entryDy=0;edgeStyle=orthogonalEdgeStyle;" parent="WIyWlLk6GJQsqaUBKTNV-1" source="4TB9VJTh2GYISYzdKiTa-6" target="4TB9VJTh2GYISYzdKiTa-4" edge="1">
          <mxGeometry x="0.2629" y="15" width="160" relative="1" as="geometry">
            <mxPoint x="235" y="170" as="sourcePoint" />
            <mxPoint x="424" y="100" as="targetPoint" />
            <mxPoint as="offset" />
          </mxGeometry>
        </mxCell>
        <mxCell id="4TB9VJTh2GYISYzdKiTa-18" value="" style="endArrow=block;endSize=16;endFill=0;html=1;rounded=0;fontSize=12;exitX=0.445;exitY=-0.041;exitDx=0;exitDy=0;entryX=0.5;entryY=1;entryDx=0;entryDy=0;edgeStyle=orthogonalEdgeStyle;exitPerimeter=0;" parent="WIyWlLk6GJQsqaUBKTNV-1" source="4TB9VJTh2GYISYzdKiTa-7" target="4TB9VJTh2GYISYzdKiTa-4" edge="1">
          <mxGeometry x="0.0027" width="160" relative="1" as="geometry">
            <mxPoint x="115" y="290" as="sourcePoint" />
            <mxPoint x="235" y="220" as="targetPoint" />
            <mxPoint as="offset" />
          </mxGeometry>
        </mxCell>
        <mxCell id="4TB9VJTh2GYISYzdKiTa-19" value="" style="endArrow=block;endSize=16;endFill=0;html=1;rounded=0;fontSize=12;entryX=0.5;entryY=1;entryDx=0;entryDy=0;edgeStyle=orthogonalEdgeStyle;" parent="WIyWlLk6GJQsqaUBKTNV-1" source="4TB9VJTh2GYISYzdKiTa-11" target="4TB9VJTh2GYISYzdKiTa-4" edge="1">
          <mxGeometry width="160" relative="1" as="geometry">
            <mxPoint x="339" y="288" as="sourcePoint" />
            <mxPoint x="235" y="220" as="targetPoint" />
            <mxPoint as="offset" />
          </mxGeometry>
        </mxCell>
        <mxCell id="4TB9VJTh2GYISYzdKiTa-20" value="&lt;b&gt;. . .&lt;/b&gt;" style="text;html=1;align=center;verticalAlign=middle;resizable=0;points=[];autosize=1;strokeColor=none;fillColor=none;fontSize=16;" parent="WIyWlLk6GJQsqaUBKTNV-1" vertex="1">
          <mxGeometry x="720" y="290" width="50" height="30" as="geometry" />
        </mxCell>
        <mxCell id="4TB9VJTh2GYISYzdKiTa-21" value="" style="endArrow=block;endSize=16;endFill=0;html=1;rounded=0;fontSize=12;exitX=0.5;exitY=0;exitDx=0;exitDy=0;entryX=0.5;entryY=1;entryDx=0;entryDy=0;edgeStyle=orthogonalEdgeStyle;" parent="WIyWlLk6GJQsqaUBKTNV-1" source="4TB9VJTh2GYISYzdKiTa-8" target="4TB9VJTh2GYISYzdKiTa-5" edge="1">
          <mxGeometry width="160" relative="1" as="geometry">
            <mxPoint x="625" y="170" as="sourcePoint" />
            <mxPoint x="424" y="100" as="targetPoint" />
          </mxGeometry>
        </mxCell>
        <mxCell id="4TB9VJTh2GYISYzdKiTa-22" value="Extends" style="endArrow=block;endSize=16;endFill=0;html=1;rounded=0;fontSize=12;exitX=0.523;exitY=0;exitDx=0;exitDy=0;entryX=0.5;entryY=1;entryDx=0;entryDy=0;edgeStyle=orthogonalEdgeStyle;exitPerimeter=0;" parent="WIyWlLk6GJQsqaUBKTNV-1" source="4TB9VJTh2GYISYzdKiTa-20" target="4TB9VJTh2GYISYzdKiTa-5" edge="1">
          <mxGeometry x="0.0051" y="-10" width="160" relative="1" as="geometry">
            <mxPoint x="625" y="290" as="sourcePoint" />
            <mxPoint x="625" y="220" as="targetPoint" />
            <mxPoint as="offset" />
          </mxGeometry>
        </mxCell>
        <mxCell id="4TB9VJTh2GYISYzdKiTa-25" value="Extends" style="endArrow=block;endSize=16;endFill=0;html=1;rounded=0;fontSize=12;exitX=0.5;exitY=0;exitDx=0;exitDy=0;entryX=0.5;entryY=1;entryDx=0;entryDy=0;edgeStyle=orthogonalEdgeStyle;" parent="WIyWlLk6GJQsqaUBKTNV-1" source="4TB9VJTh2GYISYzdKiTa-9" target="4TB9VJTh2GYISYzdKiTa-8" edge="1">
          <mxGeometry x="0.2219" y="15" width="160" relative="1" as="geometry">
            <mxPoint x="503" y="410" as="sourcePoint" />
            <mxPoint x="623" y="340" as="targetPoint" />
            <mxPoint as="offset" />
          </mxGeometry>
        </mxCell>
        <mxCell id="4TB9VJTh2GYISYzdKiTa-26" value="" style="endArrow=block;endSize=16;endFill=0;html=1;rounded=0;fontSize=12;exitX=0.5;exitY=0;exitDx=0;exitDy=0;entryX=0.5;entryY=1;entryDx=0;entryDy=0;edgeStyle=orthogonalEdgeStyle;" parent="WIyWlLk6GJQsqaUBKTNV-1" source="4TB9VJTh2GYISYzdKiTa-10" target="4TB9VJTh2GYISYzdKiTa-8" edge="1">
          <mxGeometry x="0.0027" width="160" relative="1" as="geometry">
            <mxPoint x="727" y="408" as="sourcePoint" />
            <mxPoint x="623" y="340" as="targetPoint" />
            <mxPoint as="offset" />
          </mxGeometry>
        </mxCell>
        <mxCell id="4TB9VJTh2GYISYzdKiTa-27" value="" style="endArrow=block;endSize=16;endFill=0;html=1;rounded=0;fontSize=12;entryX=0.5;entryY=1;entryDx=0;entryDy=0;edgeStyle=orthogonalEdgeStyle;" parent="WIyWlLk6GJQsqaUBKTNV-1" source="4TB9VJTh2GYISYzdKiTa-12" target="4TB9VJTh2GYISYzdKiTa-8" edge="1">
          <mxGeometry width="160" relative="1" as="geometry">
            <mxPoint x="623" y="420" as="sourcePoint" />
            <mxPoint x="623" y="340" as="targetPoint" />
            <mxPoint as="offset" />
          </mxGeometry>
        </mxCell>
        <mxCell id="4TB9VJTh2GYISYzdKiTa-28" value="NumberFormatException" style="html=1;whiteSpace=wrap;" parent="WIyWlLk6GJQsqaUBKTNV-1" vertex="1">
          <mxGeometry x="90" y="561" width="150" height="50" as="geometry" />
        </mxCell>
        <mxCell id="4TB9VJTh2GYISYzdKiTa-29" value="NullPointerException" style="html=1;whiteSpace=wrap;" parent="WIyWlLk6GJQsqaUBKTNV-1" vertex="1">
          <mxGeometry x="270" y="561" width="130" height="50" as="geometry" />
        </mxCell>
        <mxCell id="4TB9VJTh2GYISYzdKiTa-30" value="IndexOutOfBoundException" style="html=1;whiteSpace=wrap;" parent="WIyWlLk6GJQsqaUBKTNV-1" vertex="1">
          <mxGeometry x="430" y="561" width="170" height="50" as="geometry" />
        </mxCell>
        <mxCell id="4TB9VJTh2GYISYzdKiTa-31" value="&lt;b&gt;. . .&lt;/b&gt;" style="text;html=1;align=center;verticalAlign=middle;resizable=0;points=[];autosize=1;strokeColor=none;fillColor=none;fontSize=16;" parent="WIyWlLk6GJQsqaUBKTNV-1" vertex="1">
          <mxGeometry x="20" y="571" width="50" height="30" as="geometry" />
        </mxCell>
        <mxCell id="4TB9VJTh2GYISYzdKiTa-33" value="Extends" style="endArrow=block;endSize=16;endFill=0;html=1;rounded=0;fontSize=12;entryX=0.5;entryY=1;entryDx=0;entryDy=0;edgeStyle=orthogonalEdgeStyle;exitX=0.511;exitY=-0.014;exitDx=0;exitDy=0;exitPerimeter=0;" parent="WIyWlLk6GJQsqaUBKTNV-1" source="4TB9VJTh2GYISYzdKiTa-31" target="4TB9VJTh2GYISYzdKiTa-6" edge="1">
          <mxGeometry x="0.1333" y="-25" width="160" relative="1" as="geometry">
            <mxPoint x="44" y="570" as="sourcePoint" />
            <mxPoint x="330" y="350" as="targetPoint" />
            <mxPoint as="offset" />
            <Array as="points">
              <mxPoint x="46" y="480" />
              <mxPoint x="105" y="480" />
            </Array>
          </mxGeometry>
        </mxCell>
        <mxCell id="4TB9VJTh2GYISYzdKiTa-35" value="" style="endArrow=block;endSize=16;endFill=0;html=1;rounded=0;fontSize=12;entryX=0.5;entryY=1;entryDx=0;entryDy=0;edgeStyle=orthogonalEdgeStyle;exitX=0.5;exitY=0;exitDx=0;exitDy=0;" parent="WIyWlLk6GJQsqaUBKTNV-1" source="4TB9VJTh2GYISYzdKiTa-28" target="4TB9VJTh2GYISYzdKiTa-6" edge="1">
          <mxGeometry x="0.2219" y="15" width="160" relative="1" as="geometry">
            <mxPoint x="56" y="581" as="sourcePoint" />
            <mxPoint x="345" y="340" as="targetPoint" />
            <mxPoint as="offset" />
            <Array as="points">
              <mxPoint x="165" y="480" />
              <mxPoint x="105" y="480" />
            </Array>
          </mxGeometry>
        </mxCell>
        <mxCell id="4TB9VJTh2GYISYzdKiTa-36" value="" style="endArrow=block;endSize=16;endFill=0;html=1;rounded=0;fontSize=12;entryX=0.5;entryY=1;entryDx=0;entryDy=0;edgeStyle=orthogonalEdgeStyle;exitX=0.5;exitY=0;exitDx=0;exitDy=0;" parent="WIyWlLk6GJQsqaUBKTNV-1" source="4TB9VJTh2GYISYzdKiTa-29" target="4TB9VJTh2GYISYzdKiTa-6" edge="1">
          <mxGeometry x="0.2219" y="15" width="160" relative="1" as="geometry">
            <mxPoint x="175" y="571" as="sourcePoint" />
            <mxPoint x="345" y="340" as="targetPoint" />
            <mxPoint as="offset" />
            <Array as="points">
              <mxPoint x="335" y="480" />
              <mxPoint x="105" y="480" />
            </Array>
          </mxGeometry>
        </mxCell>
        <mxCell id="4TB9VJTh2GYISYzdKiTa-37" value="" style="endArrow=block;endSize=16;endFill=0;html=1;rounded=0;fontSize=12;entryX=0.5;entryY=1;entryDx=0;entryDy=0;edgeStyle=orthogonalEdgeStyle;exitX=0.5;exitY=0;exitDx=0;exitDy=0;" parent="WIyWlLk6GJQsqaUBKTNV-1" source="4TB9VJTh2GYISYzdKiTa-30" target="4TB9VJTh2GYISYzdKiTa-6" edge="1">
          <mxGeometry x="0.2219" y="15" width="160" relative="1" as="geometry">
            <mxPoint x="185" y="581" as="sourcePoint" />
            <mxPoint x="355" y="350" as="targetPoint" />
            <mxPoint as="offset" />
            <Array as="points">
              <mxPoint x="515" y="480" />
              <mxPoint x="105" y="480" />
            </Array>
          </mxGeometry>
        </mxCell>
      </root>
    </mxGraphModel>
  </diagram>
</mxfile>
